<?xml version="1.0" standalone="no"?>
<svg xmlns:xlink="http://www.w3.org/1999/xlink" id="wave" style="transform:rotate(180deg); transition: 0.3s" viewBox="0 0 1440 490" version="1.1" xmlns="http://www.w3.org/2000/svg"><defs><linearGradient id="sw-gradient-0" x1="0" x2="0" y1="1" y2="0"><stop stop-color="rgba(255, 255, 255, 1)" offset="0%"/><stop stop-color="rgba(243, 106, 62, 1)" offset="100%"/></linearGradient></defs><path style="transform:translate(0, 0px); opacity:1" fill="url(#sw-gradient-0)" d="M0,0L60,8.2C120,16,240,33,360,81.7C480,131,600,212,720,245C840,278,960,261,1080,245C1200,229,1320,212,1440,171.5C1560,131,1680,65,1800,32.7C1920,0,2040,0,2160,16.3C2280,33,2400,65,2520,89.8C2640,114,2760,131,2880,138.8C3000,147,3120,147,3240,122.5C3360,98,3480,49,3600,40.8C3720,33,3840,65,3960,130.7C4080,196,4200,294,4320,318.5C4440,343,4560,294,4680,228.7C4800,163,4920,82,5040,114.3C5160,147,5280,294,5400,334.8C5520,376,5640,310,5760,253.2C5880,196,6000,147,6120,106.2C6240,65,6360,33,6480,32.7C6600,33,6720,65,6840,81.7C6960,98,7080,98,7200,138.8C7320,180,7440,261,7560,294C7680,327,7800,310,7920,326.7C8040,343,8160,392,8280,408.3C8400,425,8520,408,8580,400.2L8640,392L8640,490L8580,490C8520,490,8400,490,8280,490C8160,490,8040,490,7920,490C7800,490,7680,490,7560,490C7440,490,7320,490,7200,490C7080,490,6960,490,6840,490C6720,490,6600,490,6480,490C6360,490,6240,490,6120,490C6000,490,5880,490,5760,490C5640,490,5520,490,5400,490C5280,490,5160,490,5040,490C4920,490,4800,490,4680,490C4560,490,4440,490,4320,490C4200,490,4080,490,3960,490C3840,490,3720,490,3600,490C3480,490,3360,490,3240,490C3120,490,3000,490,2880,490C2760,490,2640,490,2520,490C2400,490,2280,490,2160,490C2040,490,1920,490,1800,490C1680,490,1560,490,1440,490C1320,490,1200,490,1080,490C960,490,840,490,720,490C600,490,480,490,360,490C240,490,120,490,60,490L0,490Z"/><defs><linearGradient id="sw-gradient-1" x1="0" x2="0" y1="1" y2="0"><stop stop-color="rgba(243, 180.871, 62, 1)" offset="0%"/><stop stop-color="rgba(243, 106, 62, 1)" offset="100%"/></linearGradient></defs><path style="transform:translate(0, 50px); opacity:0.9" fill="url(#sw-gradient-1)" d="M0,294L60,269.5C120,245,240,196,360,147C480,98,600,49,720,32.7C840,16,960,33,1080,57.2C1200,82,1320,114,1440,114.3C1560,114,1680,82,1800,65.3C1920,49,2040,49,2160,114.3C2280,180,2400,310,2520,326.7C2640,343,2760,245,2880,204.2C3000,163,3120,180,3240,187.8C3360,196,3480,196,3600,179.7C3720,163,3840,131,3960,147C4080,163,4200,229,4320,220.5C4440,212,4560,131,4680,106.2C4800,82,4920,114,5040,147C5160,180,5280,212,5400,261.3C5520,310,5640,376,5760,343C5880,310,6000,180,6120,155.2C6240,131,6360,212,6480,204.2C6600,196,6720,98,6840,57.2C6960,16,7080,33,7200,106.2C7320,180,7440,310,7560,334.8C7680,359,7800,278,7920,212.3C8040,147,8160,98,8280,89.8C8400,82,8520,114,8580,130.7L8640,147L8640,490L8580,490C8520,490,8400,490,8280,490C8160,490,8040,490,7920,490C7800,490,7680,490,7560,490C7440,490,7320,490,7200,490C7080,490,6960,490,6840,490C6720,490,6600,490,6480,490C6360,490,6240,490,6120,490C6000,490,5880,490,5760,490C5640,490,5520,490,5400,490C5280,490,5160,490,5040,490C4920,490,4800,490,4680,490C4560,490,4440,490,4320,490C4200,490,4080,490,3960,490C3840,490,3720,490,3600,490C3480,490,3360,490,3240,490C3120,490,3000,490,2880,490C2760,490,2640,490,2520,490C2400,490,2280,490,2160,490C2040,490,1920,490,1800,490C1680,490,1560,490,1440,490C1320,490,1200,490,1080,490C960,490,840,490,720,490C600,490,480,490,360,490C240,490,120,490,60,490L0,490Z"/><defs><linearGradient id="sw-gradient-2" x1="0" x2="0" y1="1" y2="0"><stop stop-color="rgba(243, 144.079, 62, 1)" offset="0%"/><stop stop-color="rgba(230.311, 55.987, 0, 1)" offset="100%"/></linearGradient></defs><path style="transform:translate(0, 100px); opacity:0.8" fill="url(#sw-gradient-2)" d="M0,147L60,122.5C120,98,240,49,360,98C480,147,600,294,720,310.3C840,327,960,212,1080,155.2C1200,98,1320,98,1440,98C1560,98,1680,98,1800,81.7C1920,65,2040,33,2160,32.7C2280,33,2400,65,2520,130.7C2640,196,2760,294,2880,294C3000,294,3120,196,3240,196C3360,196,3480,294,3600,294C3720,294,3840,196,3960,147C4080,98,4200,98,4320,98C4440,98,4560,98,4680,89.8C4800,82,4920,65,5040,49C5160,33,5280,16,5400,73.5C5520,131,5640,261,5760,326.7C5880,392,6000,392,6120,334.8C6240,278,6360,163,6480,98C6600,33,6720,16,6840,57.2C6960,98,7080,196,7200,196C7320,196,7440,98,7560,98C7680,98,7800,196,7920,196C8040,196,8160,98,8280,65.3C8400,33,8520,65,8580,81.7L8640,98L8640,490L8580,490C8520,490,8400,490,8280,490C8160,490,8040,490,7920,490C7800,490,7680,490,7560,490C7440,490,7320,490,7200,490C7080,490,6960,490,6840,490C6720,490,6600,490,6480,490C6360,490,6240,490,6120,490C6000,490,5880,490,5760,490C5640,490,5520,490,5400,490C5280,490,5160,490,5040,490C4920,490,4800,490,4680,490C4560,490,4440,490,4320,490C4200,490,4080,490,3960,490C3840,490,3720,490,3600,490C3480,490,3360,490,3240,490C3120,490,3000,490,2880,490C2760,490,2640,490,2520,490C2400,490,2280,490,2160,490C2040,490,1920,490,1800,490C1680,490,1560,490,1440,490C1320,490,1200,490,1080,490C960,490,840,490,720,490C600,490,480,490,360,490C240,490,120,490,60,490L0,490Z"/><defs><linearGradient id="sw-gradient-3" x1="0" x2="0" y1="1" y2="0"><stop stop-color="rgba(243, 113.419, 62, 1)" offset="0%"/><stop stop-color="rgba(232.588, 68.14, 60.042, 1)" offset="100%"/></linearGradient></defs><path style="transform:translate(0, 150px); opacity:0.7" fill="url(#sw-gradient-3)" d="M0,0L60,16.3C120,33,240,65,360,98C480,131,600,163,720,204.2C840,245,960,294,1080,334.8C1200,376,1320,408,1440,400.2C1560,392,1680,343,1800,269.5C1920,196,2040,98,2160,89.8C2280,82,2400,163,2520,212.3C2640,261,2760,278,2880,302.2C3000,327,3120,359,3240,351.2C3360,343,3480,294,3600,285.8C3720,278,3840,310,3960,285.8C4080,261,4200,180,4320,187.8C4440,196,4560,294,4680,351.2C4800,408,4920,425,5040,400.2C5160,376,5280,310,5400,294C5520,278,5640,310,5760,269.5C5880,229,6000,114,6120,73.5C6240,33,6360,65,6480,138.8C6600,212,6720,327,6840,367.5C6960,408,7080,376,7200,351.2C7320,327,7440,310,7560,318.5C7680,327,7800,359,7920,375.7C8040,392,8160,392,8280,334.8C8400,278,8520,163,8580,106.2L8640,49L8640,490L8580,490C8520,490,8400,490,8280,490C8160,490,8040,490,7920,490C7800,490,7680,490,7560,490C7440,490,7320,490,7200,490C7080,490,6960,490,6840,490C6720,490,6600,490,6480,490C6360,490,6240,490,6120,490C6000,490,5880,490,5760,490C5640,490,5520,490,5400,490C5280,490,5160,490,5040,490C4920,490,4800,490,4680,490C4560,490,4440,490,4320,490C4200,490,4080,490,3960,490C3840,490,3720,490,3600,490C3480,490,3360,490,3240,490C3120,490,3000,490,2880,490C2760,490,2640,490,2520,490C2400,490,2280,490,2160,490C2040,490,1920,490,1800,490C1680,490,1560,490,1440,490C1320,490,1200,490,1080,490C960,490,840,490,720,490C600,490,480,490,360,490C240,490,120,490,60,490L0,490Z"/></svg>